<mxfile host="app.diagrams.net" agent="Mozilla/5.0 (Windows NT 10.0; Win64; x64) AppleWebKit/537.36 (KHTML, like Gecko) Chrome/134.0.0.0 Safari/537.36" version="26.1.3">
  <diagram name="Page-1" id="5f0bae14-7c28-e335-631c-24af17079c00">
    <mxGraphModel grid="1" page="1" gridSize="10" guides="1" tooltips="1" connect="1" arrows="1" fold="1" pageScale="1" pageWidth="1100" pageHeight="850" background="none" math="0" shadow="0">
      <root>
        <mxCell id="0" />
        <mxCell id="1" parent="0" />
        <mxCell id="ZyLhWv7GtL0qRULzW8Uy-11" value="&lt;span style=&quot;color: rgb(32, 33, 34); font-family: sans-serif; font-size: 12.6px; animation-delay: -0.01ms !important; animation-duration: 0.01ms !important; animation-iteration-count: 1 !important; scroll-behavior: auto !important; transition-duration: 0ms !important;&quot;&gt;&lt;span style=&quot;color: var(--color-emphasized, #000); text-decoration-line: inherit; text-decoration-thickness: inherit; text-decoration-style: inherit; text-decoration-color: var(--color-emphasized, #000); animation-delay: -0.01ms !important; animation-duration: 0.01ms !important; animation-iteration-count: 1 !important; scroll-behavior: auto !important; transition-duration: 0ms !important;&quot;&gt;&lt;span style=&quot;color: rgb(32, 33, 34); animation-delay: -0.01ms !important; animation-duration: 0.01ms !important; animation-iteration-count: 1 !important; scroll-behavior: auto !important; transition-duration: 0ms !important;&quot;&gt;&lt;span style=&quot;color: var(--color-emphasized, #000); text-decoration-line: inherit; text-decoration-thickness: inherit; text-decoration-style: inherit; text-decoration-color: var(--color-emphasized, #000); animation-delay: -0.01ms !important; animation-duration: 0.01ms !important; animation-iteration-count: 1 !important; scroll-behavior: auto !important; transition-duration: 0ms !important;&quot;&gt;«OS&lt;/span&gt;&lt;/span&gt;»&lt;/span&gt;&lt;/span&gt;&lt;div&gt;&lt;font face=&quot;sans-serif&quot;&gt;&lt;span style=&quot;font-size: 12.6px;&quot;&gt;Ubuntu&lt;/span&gt;&lt;/font&gt;&lt;/div&gt;" style="verticalAlign=top;align=center;spacingTop=8;spacingLeft=2;spacingRight=12;shape=cube;size=10;direction=south;fontStyle=0;html=1;rounded=0;shadow=0;comic=0;labelBackgroundColor=none;strokeWidth=1;fontFamily=Verdana;fontSize=12;whiteSpace=wrap;" vertex="1" parent="1">
          <mxGeometry x="-100" y="60" width="1010" height="690" as="geometry" />
        </mxCell>
        <mxCell id="ZyLhWv7GtL0qRULzW8Uy-10" value="&lt;span style=&quot;text-wrap-mode: wrap; color: rgb(32, 33, 34); font-family: sans-serif; font-size: 12.6px; animation-delay: -0.01ms !important; animation-duration: 0.01ms !important; animation-iteration-count: 1 !important; scroll-behavior: auto !important; transition-duration: 0ms !important;&quot;&gt;&lt;span style=&quot;color: var(--color-emphasized, #000); text-decoration-line: inherit; text-decoration-thickness: inherit; text-decoration-style: inherit; text-decoration-color: var(--color-emphasized, #000); animation-delay: -0.01ms !important; animation-duration: 0.01ms !important; animation-iteration-count: 1 !important; scroll-behavior: auto !important; transition-duration: 0ms !important;&quot;&gt;&lt;span style=&quot;color: rgb(32, 33, 34); font-size: 12.6px; animation-delay: -0.01ms !important; animation-duration: 0.01ms !important; animation-iteration-count: 1 !important; scroll-behavior: auto !important; transition-duration: 0ms !important;&quot;&gt;&lt;span style=&quot;color: var(--color-emphasized, #000); text-decoration-line: inherit; text-decoration-thickness: inherit; text-decoration-style: inherit; text-decoration-color: var(--color-emphasized, #000); animation-delay: -0.01ms !important; animation-duration: 0.01ms !important; animation-iteration-count: 1 !important; scroll-behavior: auto !important; transition-duration: 0ms !important;&quot;&gt;«host&lt;/span&gt;&lt;/span&gt;»&lt;/span&gt;&lt;/span&gt;&lt;div style=&quot;text-wrap-mode: wrap;&quot;&gt;docker-compose&lt;/div&gt;" style="verticalAlign=top;align=center;spacingTop=8;spacingLeft=2;spacingRight=12;shape=cube;size=10;direction=south;fontStyle=0;html=1;rounded=0;shadow=0;comic=0;labelBackgroundColor=none;strokeWidth=1;fontFamily=Verdana;fontSize=12;whiteSpace=wrap;" vertex="1" parent="1">
          <mxGeometry x="-25" y="110" width="875" height="600" as="geometry" />
        </mxCell>
        <mxCell id="5yASMywovgelRF4tE-_4-5" value="&lt;span style=&quot;text-wrap-mode: wrap; color: rgb(32, 33, 34); font-family: sans-serif; font-size: 12.6px; animation-delay: -0.01ms !important; animation-duration: 0.01ms !important; animation-iteration-count: 1 !important; scroll-behavior: auto !important; transition-duration: 0ms !important;&quot;&gt;&lt;span style=&quot;color: var(--color-emphasized, #000); text-decoration-line: inherit; text-decoration-thickness: inherit; text-decoration-style: inherit; text-decoration-color: var(--color-emphasized, #000); animation-delay: -0.01ms !important; animation-duration: 0.01ms !important; animation-iteration-count: 1 !important; scroll-behavior: auto !important; transition-duration: 0ms !important;&quot;&gt;&lt;span style=&quot;color: rgb(32, 33, 34); font-size: 12.6px; animation-delay: -0.01ms !important; animation-duration: 0.01ms !important; animation-iteration-count: 1 !important; scroll-behavior: auto !important; transition-duration: 0ms !important;&quot;&gt;&lt;span style=&quot;color: var(--color-emphasized, #000); text-decoration-line: inherit; text-decoration-thickness: inherit; text-decoration-style: inherit; text-decoration-color: var(--color-emphasized, #000); animation-delay: -0.01ms !important; animation-duration: 0.01ms !important; animation-iteration-count: 1 !important; scroll-behavior: auto !important; transition-duration: 0ms !important;&quot;&gt;«image&lt;/span&gt;&lt;/span&gt;»&lt;/span&gt;&lt;/span&gt;&lt;div style=&quot;text-wrap-mode: wrap;&quot;&gt;&lt;font face=&quot;sans-serif&quot;&gt;&lt;span style=&quot;font-size: 12.6px;&quot;&gt;backend&lt;/span&gt;&lt;/font&gt;&lt;/div&gt;" style="verticalAlign=top;align=center;spacingTop=8;spacingLeft=2;spacingRight=12;shape=cube;size=10;direction=south;fontStyle=0;html=1;rounded=0;shadow=0;comic=0;labelBackgroundColor=none;strokeWidth=1;fontFamily=Verdana;fontSize=12" vertex="1" parent="1">
          <mxGeometry x="470" y="215" width="280" height="270" as="geometry" />
        </mxCell>
        <mxCell id="39150e848f15840c-1" value="&lt;div&gt;&lt;div&gt;&lt;span style=&quot;text-wrap-mode: wrap; color: rgb(32, 33, 34); font-family: sans-serif; font-size: 12.6px; animation-delay: -0.01ms !important; animation-duration: 0.01ms !important; animation-iteration-count: 1 !important; scroll-behavior: auto !important; transition-duration: 0ms !important;&quot;&gt;&lt;span style=&quot;color: var(--color-emphasized, #000); animation-delay: -0.01ms !important; animation-duration: 0.01ms !important; animation-iteration-count: 1 !important; scroll-behavior: auto !important; transition-duration: 0ms !important;&quot;&gt;&lt;span style=&quot;color: rgb(32, 33, 34); font-size: 12.6px; animation-delay: -0.01ms !important; animation-duration: 0.01ms !important; animation-iteration-count: 1 !important; scroll-behavior: auto !important; transition-duration: 0ms !important;&quot;&gt;&lt;span style=&quot;color: var(--color-emphasized, #000); text-decoration-line: inherit; text-decoration-thickness: inherit; text-decoration-style: inherit; text-decoration-color: var(--color-emphasized, #000); animation-delay: -0.01ms !important; animation-duration: 0.01ms !important; animation-iteration-count: 1 !important; scroll-behavior: auto !important; transition-duration: 0ms !important;&quot;&gt;&lt;span style=&quot;color: rgb(32, 33, 34); font-size: 12.6px; animation-delay: -0.01ms !important; animation-duration: 0.01ms !important; animation-iteration-count: 1 !important; scroll-behavior: auto !important; transition-duration: 0ms !important;&quot;&gt;&lt;span style=&quot;color: var(--color-emphasized, #000); text-decoration-line: inherit; text-decoration-thickness: inherit; text-decoration-style: inherit; text-decoration-color: var(--color-emphasized, #000); animation-delay: -0.01ms !important; animation-duration: 0.01ms !important; animation-iteration-count: 1 !important; scroll-behavior: auto !important; transition-duration: 0ms !important;&quot;&gt;«server&lt;/span&gt;&lt;/span&gt;»&lt;/span&gt;&lt;/span&gt;&lt;/span&gt;&lt;/span&gt;&lt;/div&gt;&lt;/div&gt;&lt;div&gt;&lt;span style=&quot;text-wrap-mode: wrap; color: rgb(32, 33, 34); font-family: sans-serif; font-size: 12.6px; animation-delay: -0.01ms !important; animation-duration: 0.01ms !important; animation-iteration-count: 1 !important; scroll-behavior: auto !important; transition-duration: 0ms !important;&quot;&gt;&lt;span style=&quot;color: var(--color-emphasized, #000); animation-delay: -0.01ms !important; animation-duration: 0.01ms !important; animation-iteration-count: 1 !important; scroll-behavior: auto !important; transition-duration: 0ms !important;&quot;&gt;&lt;span style=&quot;color: rgb(32, 33, 34); font-size: 12.6px; animation-delay: -0.01ms !important; animation-duration: 0.01ms !important; animation-iteration-count: 1 !important; scroll-behavior: auto !important; transition-duration: 0ms !important;&quot;&gt;&lt;span style=&quot;color: var(--color-emphasized, #000); text-decoration-line: inherit; text-decoration-thickness: inherit; text-decoration-style: inherit; text-decoration-color: var(--color-emphasized, #000); animation-delay: -0.01ms !important; animation-duration: 0.01ms !important; animation-iteration-count: 1 !important; scroll-behavior: auto !important; transition-duration: 0ms !important;&quot;&gt;spring-boot&lt;/span&gt;&lt;/span&gt;&lt;/span&gt;&lt;/span&gt;&lt;/div&gt;" style="verticalAlign=top;align=center;spacingTop=8;spacingLeft=2;spacingRight=12;shape=cube;size=10;direction=south;fontStyle=0;html=1;rounded=0;shadow=0;comic=0;labelBackgroundColor=none;strokeWidth=1;fontFamily=Verdana;fontSize=12;whiteSpace=wrap;" vertex="1" parent="1">
          <mxGeometry x="496.25" y="270" width="230" height="200" as="geometry" />
        </mxCell>
        <mxCell id="39150e848f15840c-5" value="&lt;span style=&quot;text-wrap-mode: wrap; color: rgb(32, 33, 34); font-family: sans-serif; font-size: 12.6px; animation-delay: -0.01ms !important; animation-duration: 0.01ms !important; animation-iteration-count: 1 !important; scroll-behavior: auto !important; transition-duration: 0ms !important;&quot;&gt;&lt;span style=&quot;color: var(--color-emphasized, #000); text-decoration-line: inherit; text-decoration-thickness: inherit; text-decoration-style: inherit; text-decoration-color: var(--color-emphasized, #000); animation-delay: -0.01ms !important; animation-duration: 0.01ms !important; animation-iteration-count: 1 !important; scroll-behavior: auto !important; transition-duration: 0ms !important;&quot;&gt;&lt;span style=&quot;color: rgb(32, 33, 34); font-size: 12.6px; animation-delay: -0.01ms !important; animation-duration: 0.01ms !important; animation-iteration-count: 1 !important; scroll-behavior: auto !important; transition-duration: 0ms !important;&quot;&gt;&lt;span style=&quot;color: var(--color-emphasized, #000); text-decoration-line: inherit; text-decoration-thickness: inherit; text-decoration-style: inherit; text-decoration-color: var(--color-emphasized, #000); animation-delay: -0.01ms !important; animation-duration: 0.01ms !important; animation-iteration-count: 1 !important; scroll-behavior: auto !important; transition-duration: 0ms !important;&quot;&gt;«Spring Web&lt;/span&gt;&lt;/span&gt;»&lt;/span&gt;&lt;/span&gt;&lt;div style=&quot;&quot;&gt;&lt;font face=&quot;sans-serif&quot;&gt;&lt;span style=&quot;font-size: 12.6px; text-wrap-mode: wrap;&quot;&gt;rentplace&lt;/span&gt;&lt;/font&gt;&lt;/div&gt;" style="shape=component;align=center;spacingLeft=36;rounded=0;shadow=0;comic=0;labelBackgroundColor=none;strokeWidth=1;fontFamily=Verdana;fontSize=12;html=1;verticalAlign=middle;whiteSpace=wrap;" vertex="1" parent="1">
          <mxGeometry x="520" y="320" width="170" height="60" as="geometry" />
        </mxCell>
        <mxCell id="5yASMywovgelRF4tE-_4-6" value="&lt;span style=&quot;text-wrap-mode: wrap; color: rgb(32, 33, 34); font-family: sans-serif; font-size: 12.6px; animation-delay: -0.01ms !important; animation-duration: 0.01ms !important; animation-iteration-count: 1 !important; scroll-behavior: auto !important; transition-duration: 0ms !important;&quot;&gt;&lt;span style=&quot;color: var(--color-emphasized, #000); text-decoration-line: inherit; text-decoration-thickness: inherit; text-decoration-style: inherit; text-decoration-color: var(--color-emphasized, #000); animation-delay: -0.01ms !important; animation-duration: 0.01ms !important; animation-iteration-count: 1 !important; scroll-behavior: auto !important; transition-duration: 0ms !important;&quot;&gt;&lt;span style=&quot;color: rgb(32, 33, 34); font-size: 12.6px; animation-delay: -0.01ms !important; animation-duration: 0.01ms !important; animation-iteration-count: 1 !important; scroll-behavior: auto !important; transition-duration: 0ms !important;&quot;&gt;&lt;span style=&quot;color: var(--color-emphasized, #000); text-decoration-line: inherit; text-decoration-thickness: inherit; text-decoration-style: inherit; text-decoration-color: var(--color-emphasized, #000); animation-delay: -0.01ms !important; animation-duration: 0.01ms !important; animation-iteration-count: 1 !important; scroll-behavior: auto !important; transition-duration: 0ms !important;&quot;&gt;«image&lt;/span&gt;&lt;/span&gt;»&lt;/span&gt;&lt;/span&gt;&lt;div style=&quot;text-wrap-mode: wrap;&quot;&gt;&lt;font face=&quot;sans-serif&quot;&gt;&lt;span style=&quot;font-size: 12.6px;&quot;&gt;nginx&lt;/span&gt;&lt;/font&gt;&lt;/div&gt;" style="verticalAlign=top;align=center;spacingTop=8;spacingLeft=2;spacingRight=12;shape=cube;size=10;direction=south;fontStyle=0;html=1;rounded=0;shadow=0;comic=0;labelBackgroundColor=none;strokeWidth=1;fontFamily=Verdana;fontSize=12;whiteSpace=wrap;" vertex="1" parent="1">
          <mxGeometry x="135" y="215" width="220" height="150" as="geometry" />
        </mxCell>
        <mxCell id="ZyLhWv7GtL0qRULzW8Uy-12" value="&lt;span style=&quot;text-wrap-mode: wrap; color: rgb(32, 33, 34); font-family: sans-serif; font-size: 12.6px; animation-delay: -0.01ms !important; animation-duration: 0.01ms !important; animation-iteration-count: 1 !important; scroll-behavior: auto !important; transition-duration: 0ms !important;&quot;&gt;&lt;span style=&quot;color: var(--color-emphasized, #000); text-decoration-line: inherit; text-decoration-thickness: inherit; text-decoration-style: inherit; text-decoration-color: var(--color-emphasized, #000); animation-delay: -0.01ms !important; animation-duration: 0.01ms !important; animation-iteration-count: 1 !important; scroll-behavior: auto !important; transition-duration: 0ms !important;&quot;&gt;&lt;span style=&quot;color: rgb(32, 33, 34); font-size: 12.6px; animation-delay: -0.01ms !important; animation-duration: 0.01ms !important; animation-iteration-count: 1 !important; scroll-behavior: auto !important; transition-duration: 0ms !important;&quot;&gt;&lt;span style=&quot;color: var(--color-emphasized, #000); text-decoration-line: inherit; text-decoration-thickness: inherit; text-decoration-style: inherit; text-decoration-color: var(--color-emphasized, #000); animation-delay: -0.01ms !important; animation-duration: 0.01ms !important; animation-iteration-count: 1 !important; scroll-behavior: auto !important; transition-duration: 0ms !important;&quot;&gt;«Web-Browser&lt;/span&gt;&lt;/span&gt;»&lt;/span&gt;&lt;/span&gt;&lt;div style=&quot;text-wrap-mode: wrap;&quot;&gt;&lt;font face=&quot;sans-serif&quot;&gt;&lt;span style=&quot;font-size: 12.6px;&quot;&gt;&lt;b&gt;Client-admin&lt;/b&gt;&lt;/span&gt;&lt;/font&gt;&lt;/div&gt;" style="verticalAlign=top;align=center;spacingTop=8;spacingLeft=2;spacingRight=12;shape=cube;size=10;direction=south;fontStyle=0;html=1;rounded=0;shadow=0;comic=0;labelBackgroundColor=none;strokeWidth=1;fontFamily=Verdana;fontSize=12;whiteSpace=wrap;" vertex="1" parent="1">
          <mxGeometry x="-479.47" y="182.5" width="200" height="140" as="geometry" />
        </mxCell>
        <mxCell id="ZyLhWv7GtL0qRULzW8Uy-13" value="&lt;span style=&quot;text-wrap-mode: wrap; color: rgb(32, 33, 34); font-family: sans-serif; font-size: 12.6px; animation-delay: -0.01ms !important; animation-duration: 0.01ms !important; animation-iteration-count: 1 !important; scroll-behavior: auto !important; transition-duration: 0ms !important;&quot;&gt;&lt;span style=&quot;color: var(--color-emphasized, #000); text-decoration-line: inherit; text-decoration-thickness: inherit; text-decoration-style: inherit; text-decoration-color: var(--color-emphasized, #000); animation-delay: -0.01ms !important; animation-duration: 0.01ms !important; animation-iteration-count: 1 !important; scroll-behavior: auto !important; transition-duration: 0ms !important;&quot;&gt;&lt;span style=&quot;color: rgb(32, 33, 34); font-size: 12.6px; animation-delay: -0.01ms !important; animation-duration: 0.01ms !important; animation-iteration-count: 1 !important; scroll-behavior: auto !important; transition-duration: 0ms !important;&quot;&gt;&lt;span style=&quot;color: var(--color-emphasized, #000); text-decoration-line: inherit; text-decoration-thickness: inherit; text-decoration-style: inherit; text-decoration-color: var(--color-emphasized, #000); animation-delay: -0.01ms !important; animation-duration: 0.01ms !important; animation-iteration-count: 1 !important; scroll-behavior: auto !important; transition-duration: 0ms !important;&quot;&gt;«Progressive Web App&lt;/span&gt;&lt;/span&gt;»&lt;/span&gt;&lt;/span&gt;&lt;div style=&quot;text-wrap-mode: wrap;&quot;&gt;&lt;font face=&quot;sans-serif&quot;&gt;&lt;span style=&quot;font-size: 12.6px;&quot;&gt;&lt;b&gt;Client-mobile&lt;/b&gt;&lt;/span&gt;&lt;/font&gt;&lt;/div&gt;" style="verticalAlign=top;align=center;spacingTop=8;spacingLeft=2;spacingRight=12;shape=cube;size=10;direction=south;fontStyle=0;html=1;rounded=0;shadow=0;comic=0;labelBackgroundColor=none;strokeWidth=1;fontFamily=Verdana;fontSize=12;whiteSpace=wrap;" vertex="1" parent="1">
          <mxGeometry x="-480" y="380" width="200" height="140" as="geometry" />
        </mxCell>
        <mxCell id="ZyLhWv7GtL0qRULzW8Uy-17" style="edgeStyle=orthogonalEdgeStyle;rounded=0;orthogonalLoop=1;jettySize=auto;html=1;exitX=0;exitY=0;exitDx=360;exitDy=1080;exitPerimeter=0;entryX=0;entryY=0;entryDx=65;entryDy=0;entryPerimeter=0;endArrow=none;endFill=0;" edge="1" parent="1" target="ZyLhWv7GtL0qRULzW8Uy-13">
          <mxGeometry relative="1" as="geometry">
            <mxPoint x="-280" y="435" as="sourcePoint" />
            <mxPoint x="-200" y="410.52" as="targetPoint" />
          </mxGeometry>
        </mxCell>
        <mxCell id="ZyLhWv7GtL0qRULzW8Uy-19" style="rounded=0;html=1;labelBackgroundColor=none;startArrow=none;startFill=0;startSize=8;endArrow=none;endFill=0;endSize=16;fontFamily=Verdana;fontSize=12;entryX=0;entryY=0;entryDx=65;entryDy=0;entryPerimeter=0;exitX=0.203;exitY=1.004;exitDx=0;exitDy=0;exitPerimeter=0;" edge="1" parent="1" source="5yASMywovgelRF4tE-_4-6" target="ZyLhWv7GtL0qRULzW8Uy-12">
          <mxGeometry relative="1" as="geometry">
            <mxPoint x="70" y="248" as="sourcePoint" />
            <mxPoint x="-150" y="270" as="targetPoint" />
          </mxGeometry>
        </mxCell>
        <mxCell id="ZyLhWv7GtL0qRULzW8Uy-20" value="&lt;span style=&quot;text-wrap-mode: wrap; background-color: rgb(251, 251, 251); color: rgb(32, 33, 34); font-family: sans-serif; font-size: 12.6px; animation-delay: -0.01ms !important; animation-duration: 0.01ms !important; animation-iteration-count: 1 !important; scroll-behavior: auto !important; transition-duration: 0ms !important;&quot;&gt;&lt;span style=&quot;color: var(--color-emphasized, #000); text-decoration-line: inherit; text-decoration-thickness: inherit; text-decoration-style: inherit; text-decoration-color: var(--color-emphasized, #000); animation-delay: -0.01ms !important; animation-duration: 0.01ms !important; animation-iteration-count: 1 !important; scroll-behavior: auto !important; transition-duration: 0ms !important;&quot;&gt;&lt;span style=&quot;color: rgb(32, 33, 34); animation-delay: -0.01ms !important; animation-duration: 0.01ms !important; animation-iteration-count: 1 !important; scroll-behavior: auto !important; transition-duration: 0ms !important;&quot;&gt;&lt;span style=&quot;color: var(--color-emphasized, #000); text-decoration-line: inherit; text-decoration-thickness: inherit; text-decoration-style: inherit; text-decoration-color: var(--color-emphasized, #000); animation-delay: -0.01ms !important; animation-duration: 0.01ms !important; animation-iteration-count: 1 !important; scroll-behavior: auto !important; transition-duration: 0ms !important;&quot;&gt;«protocol&lt;/span&gt;&lt;/span&gt;»&lt;/span&gt;&lt;/span&gt;&lt;div&gt;&lt;span style=&quot;text-wrap-mode: wrap; background-color: rgb(251, 251, 251); color: rgb(32, 33, 34); font-family: sans-serif; font-size: 12.6px; animation-delay: -0.01ms !important; animation-duration: 0.01ms !important; animation-iteration-count: 1 !important; scroll-behavior: auto !important; transition-duration: 0ms !important;&quot;&gt;&lt;span style=&quot;color: var(--color-emphasized, #000); text-decoration-line: inherit; text-decoration-thickness: inherit; text-decoration-style: inherit; text-decoration-color: var(--color-emphasized, #000); animation-delay: -0.01ms !important; animation-duration: 0.01ms !important; animation-iteration-count: 1 !important; scroll-behavior: auto !important; transition-duration: 0ms !important;&quot;&gt;HTTPS:443&lt;/span&gt;&lt;/span&gt;&lt;/div&gt;" style="edgeLabel;html=1;align=center;verticalAlign=middle;resizable=0;points=[];whiteSpace=wrap;" connectable="0" vertex="1" parent="ZyLhWv7GtL0qRULzW8Uy-19">
          <mxGeometry x="0.0462" y="-1" relative="1" as="geometry">
            <mxPoint x="-27" as="offset" />
          </mxGeometry>
        </mxCell>
        <mxCell id="Axavrxpdx75Jzljk8BD6-1" value="&lt;span style=&quot;text-wrap-mode: wrap; color: rgb(32, 33, 34); font-family: sans-serif; font-size: 12.6px; animation-delay: -0.01ms !important; animation-duration: 0.01ms !important; animation-iteration-count: 1 !important; scroll-behavior: auto !important; transition-duration: 0ms !important;&quot;&gt;&lt;span style=&quot;color: var(--color-emphasized, #000); text-decoration-line: inherit; text-decoration-thickness: inherit; text-decoration-style: inherit; text-decoration-color: var(--color-emphasized, #000); animation-delay: -0.01ms !important; animation-duration: 0.01ms !important; animation-iteration-count: 1 !important; scroll-behavior: auto !important; transition-duration: 0ms !important;&quot;&gt;&lt;span style=&quot;color: rgb(32, 33, 34); font-size: 12.6px; animation-delay: -0.01ms !important; animation-duration: 0.01ms !important; animation-iteration-count: 1 !important; scroll-behavior: auto !important; transition-duration: 0ms !important;&quot;&gt;&lt;span style=&quot;color: var(--color-emphasized, #000); text-decoration-line: inherit; text-decoration-thickness: inherit; text-decoration-style: inherit; text-decoration-color: var(--color-emphasized, #000); animation-delay: -0.01ms !important; animation-duration: 0.01ms !important; animation-iteration-count: 1 !important; scroll-behavior: auto !important; transition-duration: 0ms !important;&quot;&gt;«Spring Data JPA&lt;/span&gt;&lt;/span&gt;»&lt;/span&gt;&lt;/span&gt;&lt;div style=&quot;&quot;&gt;&lt;font face=&quot;sans-serif&quot;&gt;&lt;span style=&quot;font-size: 12.6px; text-wrap-mode: wrap;&quot;&gt;rentplace API&lt;/span&gt;&lt;/font&gt;&lt;/div&gt;" style="shape=component;align=center;spacingLeft=36;rounded=0;shadow=0;comic=0;labelBackgroundColor=none;strokeWidth=1;fontFamily=Verdana;fontSize=12;html=1;verticalAlign=middle;whiteSpace=wrap;" vertex="1" parent="1">
          <mxGeometry x="520" y="395" width="170" height="60" as="geometry" />
        </mxCell>
        <mxCell id="Axavrxpdx75Jzljk8BD6-2" value="&lt;span style=&quot;color: rgb(32, 33, 34); font-family: sans-serif; font-size: 12.6px; animation-delay: -0.01ms !important; animation-duration: 0.01ms !important; animation-iteration-count: 1 !important; scroll-behavior: auto !important; transition-duration: 0ms !important;&quot;&gt;&lt;span style=&quot;color: var(--color-emphasized, #000); text-decoration-line: inherit; text-decoration-thickness: inherit; text-decoration-style: inherit; text-decoration-color: var(--color-emphasized, #000); animation-delay: -0.01ms !important; animation-duration: 0.01ms !important; animation-iteration-count: 1 !important; scroll-behavior: auto !important; transition-duration: 0ms !important;&quot;&gt;&lt;span style=&quot;color: rgb(32, 33, 34); font-size: 12.6px; animation-delay: -0.01ms !important; animation-duration: 0.01ms !important; animation-iteration-count: 1 !important; scroll-behavior: auto !important; transition-duration: 0ms !important;&quot;&gt;&lt;span style=&quot;color: var(--color-emphasized, #000); text-decoration-line: inherit; text-decoration-thickness: inherit; text-decoration-style: inherit; text-decoration-color: var(--color-emphasized, #000); animation-delay: -0.01ms !important; animation-duration: 0.01ms !important; animation-iteration-count: 1 !important; scroll-behavior: auto !important; transition-duration: 0ms !important;&quot;&gt;«image&lt;/span&gt;&lt;/span&gt;»&lt;/span&gt;&lt;/span&gt;&lt;div style=&quot;&quot;&gt;&lt;font face=&quot;sans-serif&quot;&gt;&lt;span style=&quot;font-size: 12.6px;&quot;&gt;postgres&lt;/span&gt;&lt;/font&gt;&lt;/div&gt;" style="shape=cylinder3;whiteSpace=wrap;html=1;boundedLbl=1;backgroundOutline=1;size=15;" vertex="1" parent="1">
          <mxGeometry x="556.25" y="550" width="97.5" height="77.5" as="geometry" />
        </mxCell>
        <mxCell id="Axavrxpdx75Jzljk8BD6-6" style="edgeStyle=orthogonalEdgeStyle;rounded=0;orthogonalLoop=1;jettySize=auto;html=1;exitX=0;exitY=0;exitDx=270;exitDy=145;exitPerimeter=0;entryX=0.5;entryY=0;entryDx=0;entryDy=0;entryPerimeter=0;endArrow=none;startFill=0;" edge="1" parent="1" source="5yASMywovgelRF4tE-_4-5" target="Axavrxpdx75Jzljk8BD6-2">
          <mxGeometry relative="1" as="geometry" />
        </mxCell>
        <mxCell id="Axavrxpdx75Jzljk8BD6-7" value="JDBC:5432" style="edgeLabel;html=1;align=center;verticalAlign=middle;resizable=0;points=[];" connectable="0" vertex="1" parent="Axavrxpdx75Jzljk8BD6-6">
          <mxGeometry x="-0.2229" y="-1" relative="1" as="geometry">
            <mxPoint as="offset" />
          </mxGeometry>
        </mxCell>
        <mxCell id="Axavrxpdx75Jzljk8BD6-8" style="edgeStyle=orthogonalEdgeStyle;rounded=0;orthogonalLoop=1;jettySize=auto;html=1;exitX=0;exitY=0;exitDx=100;exitDy=0;exitPerimeter=0;entryX=0.369;entryY=0.996;entryDx=0;entryDy=0;entryPerimeter=0;endArrow=none;startFill=0;" edge="1" parent="1" source="5yASMywovgelRF4tE-_4-6" target="5yASMywovgelRF4tE-_4-5">
          <mxGeometry relative="1" as="geometry" />
        </mxCell>
        <mxCell id="Axavrxpdx75Jzljk8BD6-9" value="HTTP:8080 (/api/**)" style="text;html=1;align=center;verticalAlign=middle;resizable=0;points=[];autosize=1;strokeColor=none;fillColor=none;" vertex="1" parent="1">
          <mxGeometry x="347.5" y="292.5" width="130" height="30" as="geometry" />
        </mxCell>
        <mxCell id="Axavrxpdx75Jzljk8BD6-10" style="edgeStyle=elbowEdgeStyle;rounded=0;html=1;labelBackgroundColor=none;startArrow=none;startFill=0;startSize=8;endArrow=none;endFill=0;endSize=16;fontFamily=Verdana;fontSize=12;entryX=0;entryY=0;entryDx=65;entryDy=0;entryPerimeter=0;exitX=0;exitY=0;exitDx=80;exitDy=220;exitPerimeter=0;" edge="1" parent="1">
          <mxGeometry relative="1" as="geometry">
            <Array as="points">
              <mxPoint x="-149.47" y="370" />
            </Array>
            <mxPoint x="135.53" y="295.0000000000001" as="sourcePoint" />
            <mxPoint x="-279.47" y="445" as="targetPoint" />
          </mxGeometry>
        </mxCell>
        <mxCell id="Axavrxpdx75Jzljk8BD6-11" value="&lt;span style=&quot;text-wrap-mode: wrap; background-color: rgb(251, 251, 251); color: rgb(32, 33, 34); font-family: sans-serif; font-size: 12.6px; animation-delay: -0.01ms !important; animation-duration: 0.01ms !important; animation-iteration-count: 1 !important; scroll-behavior: auto !important; transition-duration: 0ms !important;&quot;&gt;&lt;span style=&quot;color: var(--color-emphasized, #000); text-decoration-line: inherit; text-decoration-thickness: inherit; text-decoration-style: inherit; text-decoration-color: var(--color-emphasized, #000); animation-delay: -0.01ms !important; animation-duration: 0.01ms !important; animation-iteration-count: 1 !important; scroll-behavior: auto !important; transition-duration: 0ms !important;&quot;&gt;&lt;span style=&quot;color: rgb(32, 33, 34); animation-delay: -0.01ms !important; animation-duration: 0.01ms !important; animation-iteration-count: 1 !important; scroll-behavior: auto !important; transition-duration: 0ms !important;&quot;&gt;&lt;span style=&quot;color: var(--color-emphasized, #000); text-decoration-line: inherit; text-decoration-thickness: inherit; text-decoration-style: inherit; text-decoration-color: var(--color-emphasized, #000); animation-delay: -0.01ms !important; animation-duration: 0.01ms !important; animation-iteration-count: 1 !important; scroll-behavior: auto !important; transition-duration: 0ms !important;&quot;&gt;«protocol&lt;/span&gt;&lt;/span&gt;»&lt;/span&gt;&lt;/span&gt;&lt;div&gt;&lt;span style=&quot;text-wrap-mode: wrap; background-color: rgb(251, 251, 251); color: rgb(32, 33, 34); font-family: sans-serif; font-size: 12.6px; animation-delay: -0.01ms !important; animation-duration: 0.01ms !important; animation-iteration-count: 1 !important; scroll-behavior: auto !important; transition-duration: 0ms !important;&quot;&gt;&lt;span style=&quot;color: var(--color-emphasized, #000); text-decoration-line: inherit; text-decoration-thickness: inherit; text-decoration-style: inherit; text-decoration-color: var(--color-emphasized, #000); animation-delay: -0.01ms !important; animation-duration: 0.01ms !important; animation-iteration-count: 1 !important; scroll-behavior: auto !important; transition-duration: 0ms !important;&quot;&gt;HTTPS:443&lt;/span&gt;&lt;/span&gt;&lt;/div&gt;" style="edgeLabel;html=1;align=center;verticalAlign=middle;resizable=0;points=[];whiteSpace=wrap;" connectable="0" vertex="1" parent="Axavrxpdx75Jzljk8BD6-10">
          <mxGeometry x="0.0462" y="-1" relative="1" as="geometry">
            <mxPoint y="14" as="offset" />
          </mxGeometry>
        </mxCell>
        <mxCell id="yizkFl4IEffAx7xWzG40-2" value="&lt;span style=&quot;text-wrap-mode: wrap; color: rgb(32, 33, 34); font-family: sans-serif; font-size: 12.6px; animation-delay: -0.01ms !important; animation-duration: 0.01ms !important; animation-iteration-count: 1 !important; scroll-behavior: auto !important; transition-duration: 0ms !important;&quot;&gt;&lt;span style=&quot;color: var(--color-emphasized, #000); text-decoration-line: inherit; text-decoration-thickness: inherit; text-decoration-style: inherit; text-decoration-color: var(--color-emphasized, #000); animation-delay: -0.01ms !important; animation-duration: 0.01ms !important; animation-iteration-count: 1 !important; scroll-behavior: auto !important; transition-duration: 0ms !important;&quot;&gt;&lt;span style=&quot;color: rgb(32, 33, 34); font-size: 12.6px; animation-delay: -0.01ms !important; animation-duration: 0.01ms !important; animation-iteration-count: 1 !important; scroll-behavior: auto !important; transition-duration: 0ms !important;&quot;&gt;&lt;span style=&quot;color: var(--color-emphasized, #000); text-decoration-line: inherit; text-decoration-thickness: inherit; text-decoration-style: inherit; text-decoration-color: var(--color-emphasized, #000); animation-delay: -0.01ms !important; animation-duration: 0.01ms !important; animation-iteration-count: 1 !important; scroll-behavior: auto !important; transition-duration: 0ms !important;&quot;&gt;«API&lt;/span&gt;&lt;/span&gt;»&lt;/span&gt;&lt;/span&gt;&lt;div style=&quot;text-wrap-mode: wrap;&quot;&gt;&lt;font face=&quot;sans-serif&quot;&gt;&lt;span style=&quot;font-size: 12.6px;&quot;&gt;&lt;b&gt;DeepSeek-API&lt;/b&gt;&lt;/span&gt;&lt;/font&gt;&lt;/div&gt;" style="verticalAlign=top;align=center;spacingTop=8;spacingLeft=2;spacingRight=12;shape=cube;size=10;direction=south;fontStyle=0;html=1;rounded=0;shadow=0;comic=0;labelBackgroundColor=none;strokeWidth=1;fontFamily=Verdana;fontSize=12;whiteSpace=wrap;" vertex="1" parent="1">
          <mxGeometry x="-479.47" y="560" width="200" height="140" as="geometry" />
        </mxCell>
        <mxCell id="yizkFl4IEffAx7xWzG40-3" style="edgeStyle=orthogonalEdgeStyle;rounded=0;orthogonalLoop=1;jettySize=auto;html=1;exitX=0;exitY=0;exitDx=65;exitDy=0;exitPerimeter=0;entryX=1.004;entryY=0.929;entryDx=0;entryDy=0;entryPerimeter=0;endArrow=none;startFill=0;" edge="1" parent="1" source="yizkFl4IEffAx7xWzG40-2" target="5yASMywovgelRF4tE-_4-5">
          <mxGeometry relative="1" as="geometry">
            <Array as="points">
              <mxPoint x="-279" y="650" />
              <mxPoint x="490" y="650" />
            </Array>
          </mxGeometry>
        </mxCell>
        <mxCell id="yizkFl4IEffAx7xWzG40-4" value="&lt;span style=&quot;text-wrap-mode: wrap; background-color: rgb(251, 251, 251); color: rgb(32, 33, 34); font-family: sans-serif; font-size: 12.6px; animation-delay: -0.01ms !important; animation-duration: 0.01ms !important; animation-iteration-count: 1 !important; scroll-behavior: auto !important; transition-duration: 0ms !important;&quot;&gt;&lt;span style=&quot;color: var(--color-emphasized, #000); text-decoration-line: inherit; text-decoration-thickness: inherit; text-decoration-style: inherit; text-decoration-color: var(--color-emphasized, #000); animation-delay: -0.01ms !important; animation-duration: 0.01ms !important; animation-iteration-count: 1 !important; scroll-behavior: auto !important; transition-duration: 0ms !important;&quot;&gt;&lt;span style=&quot;color: rgb(32, 33, 34); animation-delay: -0.01ms !important; animation-duration: 0.01ms !important; animation-iteration-count: 1 !important; scroll-behavior: auto !important; transition-duration: 0ms !important;&quot;&gt;&lt;span style=&quot;color: var(--color-emphasized, #000); text-decoration-line: inherit; text-decoration-thickness: inherit; text-decoration-style: inherit; text-decoration-color: var(--color-emphasized, #000); animation-delay: -0.01ms !important; animation-duration: 0.01ms !important; animation-iteration-count: 1 !important; scroll-behavior: auto !important; transition-duration: 0ms !important;&quot;&gt;«protocol&lt;/span&gt;&lt;/span&gt;»&lt;/span&gt;&lt;/span&gt;&lt;div&gt;&lt;span style=&quot;text-wrap-mode: wrap; background-color: rgb(251, 251, 251); color: rgb(32, 33, 34); font-family: sans-serif; font-size: 12.6px; animation-delay: -0.01ms !important; animation-duration: 0.01ms !important; animation-iteration-count: 1 !important; scroll-behavior: auto !important; transition-duration: 0ms !important;&quot;&gt;&lt;span style=&quot;color: var(--color-emphasized, #000); text-decoration-line: inherit; text-decoration-thickness: inherit; text-decoration-style: inherit; text-decoration-color: var(--color-emphasized, #000); animation-delay: -0.01ms !important; animation-duration: 0.01ms !important; animation-iteration-count: 1 !important; scroll-behavior: auto !important; transition-duration: 0ms !important;&quot;&gt;HTTPS:443&lt;/span&gt;&lt;/span&gt;&lt;/div&gt;" style="edgeLabel;html=1;align=center;verticalAlign=middle;resizable=0;points=[];" connectable="0" vertex="1" parent="yizkFl4IEffAx7xWzG40-3">
          <mxGeometry x="0.0238" relative="1" as="geometry">
            <mxPoint x="-336" as="offset" />
          </mxGeometry>
        </mxCell>
        <mxCell id="BezraaurK8I7cIwyPRHv-1" value="&lt;span style=&quot;text-wrap-mode: wrap; color: rgb(32, 33, 34); font-family: sans-serif; font-size: 12.6px; animation-delay: -0.01ms !important; animation-duration: 0.01ms !important; animation-iteration-count: 1 !important; scroll-behavior: auto !important; transition-duration: 0ms !important;&quot;&gt;&lt;span style=&quot;color: var(--color-emphasized, #000); text-decoration-line: inherit; text-decoration-thickness: inherit; text-decoration-style: inherit; text-decoration-color: var(--color-emphasized, #000); animation-delay: -0.01ms !important; animation-duration: 0.01ms !important; animation-iteration-count: 1 !important; scroll-behavior: auto !important; transition-duration: 0ms !important;&quot;&gt;&lt;span style=&quot;color: rgb(32, 33, 34); font-size: 12.6px; animation-delay: -0.01ms !important; animation-duration: 0.01ms !important; animation-iteration-count: 1 !important; scroll-behavior: auto !important; transition-duration: 0ms !important;&quot;&gt;&lt;span style=&quot;color: var(--color-emphasized, #000); text-decoration-line: inherit; text-decoration-thickness: inherit; text-decoration-style: inherit; text-decoration-color: var(--color-emphasized, #000); animation-delay: -0.01ms !important; animation-duration: 0.01ms !important; animation-iteration-count: 1 !important; scroll-behavior: auto !important; transition-duration: 0ms !important;&quot;&gt;«API&lt;/span&gt;&lt;/span&gt;»&lt;/span&gt;&lt;/span&gt;&lt;div style=&quot;text-wrap-mode: wrap;&quot;&gt;&lt;font face=&quot;sans-serif&quot;&gt;&lt;span style=&quot;font-size: 12.6px;&quot;&gt;&lt;b&gt;Postmark-API&lt;/b&gt;&lt;/span&gt;&lt;/font&gt;&lt;/div&gt;" style="verticalAlign=top;align=center;spacingTop=8;spacingLeft=2;spacingRight=12;shape=cube;size=10;direction=south;fontStyle=0;html=1;rounded=0;shadow=0;comic=0;labelBackgroundColor=none;strokeWidth=1;fontFamily=Verdana;fontSize=12;whiteSpace=wrap;" vertex="1" parent="1">
          <mxGeometry x="-479.47" y="730" width="200" height="140" as="geometry" />
        </mxCell>
        <mxCell id="BezraaurK8I7cIwyPRHv-2" style="edgeStyle=elbowEdgeStyle;rounded=0;orthogonalLoop=1;jettySize=auto;html=1;exitX=0;exitY=0;exitDx=65;exitDy=0;exitPerimeter=0;entryX=0.993;entryY=0.842;entryDx=0;entryDy=0;entryPerimeter=0;endArrow=none;startFill=0;elbow=vertical;" edge="1" parent="1" target="5yASMywovgelRF4tE-_4-5">
          <mxGeometry relative="1" as="geometry">
            <Array as="points">
              <mxPoint x="130" y="790" />
            </Array>
            <mxPoint x="-280" y="790.92" as="sourcePoint" />
            <mxPoint x="469.47" y="455.0000000000004" as="targetPoint" />
          </mxGeometry>
        </mxCell>
        <mxCell id="BezraaurK8I7cIwyPRHv-3" value="&lt;span style=&quot;text-wrap-mode: wrap; background-color: rgb(251, 251, 251); color: rgb(32, 33, 34); font-family: sans-serif; font-size: 12.6px; animation-delay: -0.01ms !important; animation-duration: 0.01ms !important; animation-iteration-count: 1 !important; scroll-behavior: auto !important; transition-duration: 0ms !important;&quot;&gt;&lt;span style=&quot;color: var(--color-emphasized, #000); text-decoration-line: inherit; text-decoration-thickness: inherit; text-decoration-style: inherit; text-decoration-color: var(--color-emphasized, #000); animation-delay: -0.01ms !important; animation-duration: 0.01ms !important; animation-iteration-count: 1 !important; scroll-behavior: auto !important; transition-duration: 0ms !important;&quot;&gt;&lt;span style=&quot;color: rgb(32, 33, 34); animation-delay: -0.01ms !important; animation-duration: 0.01ms !important; animation-iteration-count: 1 !important; scroll-behavior: auto !important; transition-duration: 0ms !important;&quot;&gt;&lt;span style=&quot;color: var(--color-emphasized, #000); text-decoration-line: inherit; text-decoration-thickness: inherit; text-decoration-style: inherit; text-decoration-color: var(--color-emphasized, #000); animation-delay: -0.01ms !important; animation-duration: 0.01ms !important; animation-iteration-count: 1 !important; scroll-behavior: auto !important; transition-duration: 0ms !important;&quot;&gt;«protocol&lt;/span&gt;&lt;/span&gt;»&lt;/span&gt;&lt;/span&gt;&lt;div&gt;&lt;span style=&quot;text-wrap-mode: wrap; background-color: rgb(251, 251, 251); color: rgb(32, 33, 34); font-family: sans-serif; font-size: 12.6px; animation-delay: -0.01ms !important; animation-duration: 0.01ms !important; animation-iteration-count: 1 !important; scroll-behavior: auto !important; transition-duration: 0ms !important;&quot;&gt;&lt;span style=&quot;color: var(--color-emphasized, #000); text-decoration-line: inherit; text-decoration-thickness: inherit; text-decoration-style: inherit; text-decoration-color: var(--color-emphasized, #000); animation-delay: -0.01ms !important; animation-duration: 0.01ms !important; animation-iteration-count: 1 !important; scroll-behavior: auto !important; transition-duration: 0ms !important;&quot;&gt;HTTPS:443&lt;/span&gt;&lt;/span&gt;&lt;/div&gt;" style="edgeLabel;html=1;align=center;verticalAlign=middle;resizable=0;points=[];" connectable="0" vertex="1" parent="1">
          <mxGeometry x="-139.99999999999983" y="790.0000000000005" as="geometry" />
        </mxCell>
        <mxCell id="MicbHvlBcEMRXGm85oZz-1" value="&lt;span style=&quot;text-wrap-mode: wrap; color: rgb(32, 33, 34); font-family: sans-serif; font-size: 12.6px; animation-delay: -0.01ms !important; animation-duration: 0.01ms !important; animation-iteration-count: 1 !important; scroll-behavior: auto !important; transition-duration: 0ms !important;&quot;&gt;&lt;span style=&quot;color: var(--color-emphasized, #000); text-decoration-line: inherit; text-decoration-thickness: inherit; text-decoration-style: inherit; text-decoration-color: var(--color-emphasized, #000); animation-delay: -0.01ms !important; animation-duration: 0.01ms !important; animation-iteration-count: 1 !important; scroll-behavior: auto !important; transition-duration: 0ms !important;&quot;&gt;&lt;span style=&quot;color: rgb(32, 33, 34); font-size: 12.6px; animation-delay: -0.01ms !important; animation-duration: 0.01ms !important; animation-iteration-count: 1 !important; scroll-behavior: auto !important; transition-duration: 0ms !important;&quot;&gt;&lt;span style=&quot;color: var(--color-emphasized, #000); text-decoration-line: inherit; text-decoration-thickness: inherit; text-decoration-style: inherit; text-decoration-color: var(--color-emphasized, #000); animation-delay: -0.01ms !important; animation-duration: 0.01ms !important; animation-iteration-count: 1 !important; scroll-behavior: auto !important; transition-duration: 0ms !important;&quot;&gt;«image&lt;/span&gt;&lt;/span&gt;»&lt;/span&gt;&lt;/span&gt;&lt;div style=&quot;text-wrap-mode: wrap;&quot;&gt;&lt;font face=&quot;sans-serif&quot;&gt;&lt;span style=&quot;font-size: 12.6px;&quot;&gt;react-admin&lt;/span&gt;&lt;/font&gt;&lt;/div&gt;" style="verticalAlign=top;align=center;spacingTop=8;spacingLeft=2;spacingRight=12;shape=cube;size=10;direction=south;fontStyle=0;html=1;rounded=0;shadow=0;comic=0;labelBackgroundColor=none;strokeWidth=1;fontFamily=Verdana;fontSize=12;whiteSpace=wrap;" vertex="1" parent="1">
          <mxGeometry x="40" y="485" width="180" height="132.5" as="geometry" />
        </mxCell>
        <mxCell id="MicbHvlBcEMRXGm85oZz-2" value="&lt;span style=&quot;text-wrap-mode: wrap; color: rgb(32, 33, 34); font-family: sans-serif; font-size: 12.6px; animation-delay: -0.01ms !important; animation-duration: 0.01ms !important; animation-iteration-count: 1 !important; scroll-behavior: auto !important; transition-duration: 0ms !important;&quot;&gt;&lt;span style=&quot;color: var(--color-emphasized, #000); text-decoration-line: inherit; text-decoration-thickness: inherit; text-decoration-style: inherit; text-decoration-color: var(--color-emphasized, #000); animation-delay: -0.01ms !important; animation-duration: 0.01ms !important; animation-iteration-count: 1 !important; scroll-behavior: auto !important; transition-duration: 0ms !important;&quot;&gt;&lt;span style=&quot;color: rgb(32, 33, 34); font-size: 12.6px; animation-delay: -0.01ms !important; animation-duration: 0.01ms !important; animation-iteration-count: 1 !important; scroll-behavior: auto !important; transition-duration: 0ms !important;&quot;&gt;&lt;span style=&quot;color: var(--color-emphasized, #000); text-decoration-line: inherit; text-decoration-thickness: inherit; text-decoration-style: inherit; text-decoration-color: var(--color-emphasized, #000); animation-delay: -0.01ms !important; animation-duration: 0.01ms !important; animation-iteration-count: 1 !important; scroll-behavior: auto !important; transition-duration: 0ms !important;&quot;&gt;«image&lt;/span&gt;&lt;/span&gt;»&lt;/span&gt;&lt;/span&gt;&lt;div style=&quot;text-wrap-mode: wrap;&quot;&gt;&lt;font face=&quot;sans-serif&quot;&gt;&lt;span style=&quot;font-size: 12.6px;&quot;&gt;react-mobile&lt;/span&gt;&lt;/font&gt;&lt;/div&gt;" style="verticalAlign=top;align=center;spacingTop=8;spacingLeft=2;spacingRight=12;shape=cube;size=10;direction=south;fontStyle=0;html=1;rounded=0;shadow=0;comic=0;labelBackgroundColor=none;strokeWidth=1;fontFamily=Verdana;fontSize=12;whiteSpace=wrap;" vertex="1" parent="1">
          <mxGeometry x="240" y="485" width="180" height="132.5" as="geometry" />
        </mxCell>
        <mxCell id="MicbHvlBcEMRXGm85oZz-3" value="&lt;span style=&quot;text-wrap-mode: wrap; color: rgb(32, 33, 34); font-family: sans-serif; font-size: 12.6px; animation-delay: -0.01ms !important; animation-duration: 0.01ms !important; animation-iteration-count: 1 !important; scroll-behavior: auto !important; transition-duration: 0ms !important;&quot;&gt;&lt;span style=&quot;color: var(--color-emphasized, #000); text-decoration-line: inherit; text-decoration-thickness: inherit; text-decoration-style: inherit; text-decoration-color: var(--color-emphasized, #000); animation-delay: -0.01ms !important; animation-duration: 0.01ms !important; animation-iteration-count: 1 !important; scroll-behavior: auto !important; transition-duration: 0ms !important;&quot;&gt;&lt;span style=&quot;color: rgb(32, 33, 34); font-size: 12.6px; animation-delay: -0.01ms !important; animation-duration: 0.01ms !important; animation-iteration-count: 1 !important; scroll-behavior: auto !important; transition-duration: 0ms !important;&quot;&gt;&lt;span style=&quot;color: var(--color-emphasized, #000); text-decoration-line: inherit; text-decoration-thickness: inherit; text-decoration-style: inherit; text-decoration-color: var(--color-emphasized, #000); animation-delay: -0.01ms !important; animation-duration: 0.01ms !important; animation-iteration-count: 1 !important; scroll-behavior: auto !important; transition-duration: 0ms !important;&quot;&gt;«build&lt;/span&gt;&lt;/span&gt;»&lt;/span&gt;&lt;/span&gt;&lt;div style=&quot;&quot;&gt;&lt;font face=&quot;sans-serif&quot;&gt;&lt;span style=&quot;font-size: 12.6px;&quot;&gt;admin-web-react&lt;/span&gt;&lt;/font&gt;&lt;/div&gt;" style="shape=component;align=center;spacingLeft=36;rounded=0;shadow=0;comic=0;labelBackgroundColor=none;strokeWidth=1;fontFamily=Verdana;fontSize=12;html=1;verticalAlign=middle;whiteSpace=wrap;" vertex="1" parent="1">
          <mxGeometry x="50" y="540" width="150" height="55" as="geometry" />
        </mxCell>
        <mxCell id="MicbHvlBcEMRXGm85oZz-4" value="&lt;span style=&quot;text-wrap-mode: wrap; color: rgb(32, 33, 34); font-family: sans-serif; font-size: 12.6px; animation-delay: -0.01ms !important; animation-duration: 0.01ms !important; animation-iteration-count: 1 !important; scroll-behavior: auto !important; transition-duration: 0ms !important;&quot;&gt;&lt;span style=&quot;color: var(--color-emphasized, #000); text-decoration-line: inherit; text-decoration-thickness: inherit; text-decoration-style: inherit; text-decoration-color: var(--color-emphasized, #000); animation-delay: -0.01ms !important; animation-duration: 0.01ms !important; animation-iteration-count: 1 !important; scroll-behavior: auto !important; transition-duration: 0ms !important;&quot;&gt;&lt;span style=&quot;color: rgb(32, 33, 34); font-size: 12.6px; animation-delay: -0.01ms !important; animation-duration: 0.01ms !important; animation-iteration-count: 1 !important; scroll-behavior: auto !important; transition-duration: 0ms !important;&quot;&gt;&lt;span style=&quot;color: var(--color-emphasized, #000); text-decoration-line: inherit; text-decoration-thickness: inherit; text-decoration-style: inherit; text-decoration-color: var(--color-emphasized, #000); animation-delay: -0.01ms !important; animation-duration: 0.01ms !important; animation-iteration-count: 1 !important; scroll-behavior: auto !important; transition-duration: 0ms !important;&quot;&gt;«build&lt;/span&gt;&lt;/span&gt;»&lt;/span&gt;&lt;/span&gt;&lt;div style=&quot;&quot;&gt;&lt;font face=&quot;sans-serif&quot;&gt;&lt;span style=&quot;font-size: 12.6px;&quot;&gt;mobile-pwa-react&lt;/span&gt;&lt;/font&gt;&lt;/div&gt;" style="shape=component;align=center;spacingLeft=36;rounded=0;shadow=0;comic=0;labelBackgroundColor=none;strokeWidth=1;fontFamily=Verdana;fontSize=12;html=1;verticalAlign=middle;whiteSpace=wrap;" vertex="1" parent="1">
          <mxGeometry x="250" y="540" width="150" height="55" as="geometry" />
        </mxCell>
        <mxCell id="MicbHvlBcEMRXGm85oZz-5" style="edgeStyle=orthogonalEdgeStyle;rounded=0;orthogonalLoop=1;jettySize=auto;html=1;exitX=0;exitY=0;exitDx=150;exitDy=115;exitPerimeter=0;entryX=0;entryY=0;entryDx=0;entryDy=85;entryPerimeter=0;endArrow=none;startFill=0;" edge="1" parent="1" source="5yASMywovgelRF4tE-_4-6" target="MicbHvlBcEMRXGm85oZz-1">
          <mxGeometry relative="1" as="geometry">
            <Array as="points">
              <mxPoint x="230" y="365" />
              <mxPoint x="230" y="425" />
              <mxPoint x="135" y="425" />
            </Array>
          </mxGeometry>
        </mxCell>
        <mxCell id="MicbHvlBcEMRXGm85oZz-6" style="edgeStyle=orthogonalEdgeStyle;rounded=0;orthogonalLoop=1;jettySize=auto;html=1;exitX=0;exitY=0;exitDx=150;exitDy=115;exitPerimeter=0;entryX=0;entryY=0;entryDx=0;entryDy=85;entryPerimeter=0;endArrow=none;startFill=0;" edge="1" parent="1" source="5yASMywovgelRF4tE-_4-6" target="MicbHvlBcEMRXGm85oZz-2">
          <mxGeometry relative="1" as="geometry">
            <Array as="points">
              <mxPoint x="250" y="365" />
              <mxPoint x="250" y="425" />
              <mxPoint x="335" y="425" />
            </Array>
          </mxGeometry>
        </mxCell>
        <mxCell id="MicbHvlBcEMRXGm85oZz-7" value="/admin/**" style="text;html=1;align=center;verticalAlign=middle;resizable=0;points=[];autosize=1;strokeColor=none;fillColor=none;" vertex="1" parent="1">
          <mxGeometry x="140" y="400" width="70" height="30" as="geometry" />
        </mxCell>
        <mxCell id="MicbHvlBcEMRXGm85oZz-8" value="/mobile/**" style="text;html=1;align=center;verticalAlign=middle;resizable=0;points=[];autosize=1;strokeColor=none;fillColor=none;" vertex="1" parent="1">
          <mxGeometry x="260" y="400" width="70" height="30" as="geometry" />
        </mxCell>
      </root>
    </mxGraphModel>
  </diagram>
</mxfile>
